<?xml version="1.0" standalone="no"?>
<!DOCTYPE svg PUBLIC "-//W3C//DTD SVG 20010904//EN"
 "http://www.w3.org/TR/2001/REC-SVG-20010904/DTD/svg10.dtd">
<svg version="1.0" xmlns="http://www.w3.org/2000/svg"
 width="500.000000pt" height="750.000000pt" viewBox="0 0 500.000000 750.000000"
 preserveAspectRatio="xMidYMid meet">

<g transform="translate(0.000000,750.000000) scale(0.100000,-0.100000)"
fill="#000000" stroke="none">
<path d="M2805 6670 c-3 -5 -1 -10 4 -10 6 0 11 5 11 10 0 6 -2 10 -4 10 -3 0
-8 -4 -11 -10z"/>
<path d="M2700 6635 c7 -8 19 -15 26 -15 8 0 14 -5 14 -11 0 -5 4 -8 10 -4 14
8 -21 45 -43 45 -16 0 -17 -3 -7 -15z"/>
<path d="M4087 6550 c3 -19 10 -42 15 -50 12 -20 -1 49 -13 70 -5 9 -6 2 -2
-20z"/>
<path d="M4150 6391 c0 -5 5 -13 10 -16 6 -3 10 -2 10 4 0 5 -4 13 -10 16 -5
3 -10 2 -10 -4z"/>
<path d="M4266 6392 c-3 -6 1 -15 9 -22 12 -10 13 -16 4 -26 -6 -8 -8 -14 -3
-14 5 0 -3 -8 -16 -17 l-24 -17 24 -6 c19 -4 26 -13 28 -38 2 -20 9 -32 18
-32 11 0 14 18 14 86 0 56 -3 83 -10 79 -6 -4 -17 -2 -25 5 -8 6 -16 7 -19 2z"/>
<path d="M1060 6111 c0 -12 29 -35 36 -28 4 3 -1 13 -9 22 -17 17 -27 19 -27
6z"/>
<path d="M4221 5944 c0 -11 3 -14 6 -6 3 7 2 16 -1 19 -3 4 -6 -2 -5 -13z"/>
<path d="M4201 5889 c-14 -42 -7 -49 9 -9 7 17 10 33 8 36 -3 3 -11 -9 -17
-27z"/>
<path d="M4245 5818 c-5 -13 -16 -34 -27 -48 -76 -100 -168 -265 -168 -302 0
-15 13 0 42 48 23 38 45 70 50 72 4 2 16 22 26 46 11 23 26 49 35 57 17 17 61
138 53 146 -2 2 -7 -6 -11 -19z"/>
<path d="M4158 5792 l-17 -37 19 24 c11 13 20 29 20 37 0 21 -3 17 -22 -24z"/>
<path d="M453 5793 c-7 -3 -13 -12 -13 -21 0 -15 2 -15 17 1 18 18 16 27 -4
20z"/>
<path d="M2247 5789 c7 -7 15 -10 18 -7 3 3 -2 9 -12 12 -14 6 -15 5 -6 -5z"/>
<path d="M4360 5731 c0 -20 -13 -42 -47 -78 -125 -130 -146 -157 -116 -146 16
6 17 5 4 -13 -8 -10 -27 -32 -42 -49 -32 -35 -109 -173 -109 -195 1 -11 4 -9
12 5 6 11 26 35 45 54 18 18 35 42 38 52 4 11 15 19 25 19 13 0 31 24 61 78
23 42 59 100 79 128 51 68 87 174 60 174 -5 0 -10 -13 -10 -29z"/>
<path d="M2370 5710 c0 -5 4 -10 10 -10 5 0 39 -14 74 -30 55 -26 75 -31 128
-28 l63 3 -60 13 c-33 7 -92 24 -132 37 -81 28 -83 29 -83 15z"/>
<path d="M4030 5579 c0 -5 5 -7 10 -4 6 3 10 8 10 11 0 2 -4 4 -10 4 -5 0 -10
-5 -10 -11z"/>
<path d="M4582 5548 c-6 -18 -22 -67 -36 -108 -15 -41 -34 -81 -43 -87 -9 -7
-11 -13 -5 -13 23 0 8 -38 -58 -140 -11 -18 -68 -150 -102 -235 -12 -33 -26
-61 -30 -63 -4 -2 -4 -10 -1 -19 4 -10 2 -14 -4 -10 -20 12 -35 -21 -31 -65 2
-24 -2 -63 -9 -87 -15 -52 -16 -61 -5 -61 5 0 14 19 20 43 24 93 100 304 122
337 9 14 24 39 32 55 8 17 29 58 46 91 18 34 32 67 32 73 0 6 14 38 30 71 17
33 30 72 30 87 0 17 8 33 19 40 26 17 36 65 19 98 l-14 26 -12 -33z"/>
<path d="M3995 5520 c-9 -16 -13 -30 -11 -30 3 0 12 14 21 30 9 17 13 30 11
30 -3 0 -12 -13 -21 -30z"/>
<path d="M3989 5322 c-30 -54 -44 -102 -29 -102 5 0 12 11 16 24 3 14 13 27
22 31 14 5 14 7 2 15 -13 8 -13 10 2 10 12 0 16 9 15 35 -1 19 -1 35 -1 35 -1
0 -13 -21 -27 -48z"/>
<path d="M2739 5297 c-1 -12 -1 -25 0 -29 0 -5 -4 -8 -10 -8 -5 0 -7 -5 -4
-10 4 -6 1 -18 -6 -26 -18 -22 -3 -28 18 -7 20 20 101 48 111 39 3 -3 11 -1
18 4 8 8 16 6 26 -3 10 -11 51 -16 151 -19 89 -2 141 -8 149 -16 7 -7 21 -12
31 -12 17 0 18 2 6 17 -13 15 -11 15 25 9 43 -8 184 13 165 25 -7 4 -30 5 -51
3 -21 -3 -38 0 -38 5 0 5 -21 10 -47 10 -27 0 -65 7 -85 15 -39 17 -83 21 -74
8 6 -10 -256 -8 -273 2 -7 5 -35 10 -62 12 -45 3 -49 2 -50 -19z"/>
<path d="M2938 5313 c7 -3 16 -2 19 1 4 3 -2 6 -13 5 -11 0 -14 -3 -6 -6z"/>
<path d="M4645 5276 c-9 -13 -18 -39 -20 -57 -12 -94 -28 -145 -59 -192 -19
-29 -46 -75 -61 -104 -14 -28 -33 -57 -40 -63 -28 -23 -93 -171 -115 -260 -6
-25 -15 -54 -19 -65 -27 -67 -38 -121 -22 -111 5 3 12 26 15 50 4 24 13 49 20
55 11 9 12 6 8 -14 -2 -14 -8 -28 -13 -31 -5 -3 -9 -16 -9 -29 0 -28 -19 -112
-30 -135 -4 -8 -5 -30 -2 -48 3 -20 0 -32 -7 -32 -8 0 -10 -12 -5 -36 5 -25 3
-39 -6 -44 -8 -5 -15 -17 -16 -27 -2 -10 -18 -31 -37 -48 -32 -28 -34 -34 -39
-108 -5 -74 -7 -80 -39 -107 -42 -36 -49 -37 -49 -6 0 19 -4 23 -19 19 -33 -8
-34 -34 -4 -59 15 -13 34 -21 41 -19 8 3 23 5 35 5 18 0 25 10 37 52 9 33 21
54 31 56 26 5 28 -46 6 -163 -11 -58 -17 -108 -14 -111 3 -3 14 2 25 11 15 14
18 26 14 61 -3 26 2 69 13 106 19 69 23 92 29 187 2 35 9 67 16 71 6 4 10 21
9 38 -3 26 2 36 31 57 60 44 120 26 105 -32 -3 -16 -16 -38 -27 -50 -14 -15
-22 -39 -25 -80 -3 -45 -12 -70 -38 -110 -27 -40 -34 -61 -33 -96 1 -47 -22
-105 -53 -133 -11 -10 -19 -30 -19 -50 0 -43 13 -50 28 -16 7 15 36 41 64 57
56 33 83 64 94 109 5 22 4 27 -6 21 -10 -6 -12 1 -6 34 l7 43 -25 -29 c-19
-22 -27 -25 -37 -16 -10 10 -9 20 6 50 10 21 23 49 30 63 6 14 20 51 29 82 19
63 35 83 37 46 1 -13 1 -26 1 -29 -8 -73 -10 -110 -6 -96 3 10 13 16 21 15 10
-2 20 11 30 42 18 60 71 288 85 370 6 36 17 80 25 98 14 33 46 208 57 312 l6
55 -15 -50 c-8 -27 -14 -62 -15 -76 0 -38 -20 -89 -34 -89 -7 0 -18 -11 -24
-25 -14 -31 -6 -32 19 -2 16 19 18 20 19 4 0 -32 -31 -81 -101 -155 -38 -39
-69 -76 -69 -80 0 -9 -54 -42 -69 -42 -17 0 -13 36 5 51 8 7 33 50 55 95 21
45 43 85 49 89 5 3 10 14 10 25 0 10 7 20 15 24 8 3 15 12 15 21 0 8 14 29 30
47 30 31 42 90 20 103 -12 7 -14 36 -2 34 29 -5 32 3 27 67 -2 37 0 85 6 108
16 61 38 169 39 185 0 11 -3 11 -15 1 -13 -10 -15 -9 -15 8 0 12 4 23 8 26 9
5 14 96 6 96 -2 0 -11 -11 -19 -24z m-146 -581 c-5 -19 -30 -74 -54 -122 -25
-48 -45 -93 -45 -100 0 -6 -9 -27 -20 -46 -12 -19 -23 -44 -25 -56 -4 -20 -35
-61 -35 -46 0 9 78 250 98 304 16 42 64 101 82 101 5 0 4 -16 -1 -35z m-229
-734 c0 -11 -4 -23 -10 -26 -6 -4 -10 5 -10 19 0 14 5 26 10 26 6 0 10 -9 10
-19z"/>
<path d="M2573 5274 c-3 -8 -3 -23 0 -34 3 -10 0 -21 -7 -23 -6 -2 8 -7 32
-11 23 -4 42 -13 42 -19 0 -21 23 12 26 37 3 28 -7 38 -54 54 -27 9 -34 9 -39
-4z"/>
<path d="M780 5270 c1 -8 8 -26 16 -40 l15 -25 -6 30 c-7 33 -25 59 -25 35z"/>
<path d="M1851 5251 c-10 -7 -8 -10 8 -16 27 -8 36 -2 18 13 -7 6 -18 7 -26 3z"/>
<path d="M3450 5250 c0 -5 5 -10 11 -10 5 0 7 5 4 10 -3 6 -8 10 -11 10 -2 0
-4 -4 -4 -10z"/>
<path d="M800 5180 c0 -5 5 -10 10 -10 6 0 10 5 10 10 0 6 -4 10 -10 10 -5 0
-10 -4 -10 -10z"/>
<path d="M1384 4992 c-6 -4 -23 -30 -38 -59 -18 -34 -37 -55 -57 -63 -29 -13
-56 -46 -45 -57 3 -3 12 0 21 7 8 7 15 9 15 5 0 -12 63 73 94 128 28 48 29 52
10 39z"/>
<path d="M4306 4943 c-6 -14 -5 -15 5 -6 7 7 10 15 7 18 -3 3 -9 -2 -12 -12z"/>
<path d="M3940 4908 c0 -19 74 -100 108 -117 26 -14 62 1 62 24 0 14 -70 65
-89 65 -5 0 -14 7 -21 15 -7 9 -20 13 -28 10 -9 -3 -19 0 -24 7 -6 10 -8 9 -8
-4z"/>
<path d="M980 4861 c0 -5 7 -14 15 -21 12 -10 15 -10 15 3 0 8 -7 17 -15 21
-8 3 -15 2 -15 -3z"/>
<path d="M1105 4800 c3 -5 8 -10 11 -10 2 0 4 5 4 10 0 6 -5 10 -11 10 -5 0
-7 -4 -4 -10z"/>
<path d="M350 4615 c0 -15 43 -130 54 -144 9 -11 12 -9 17 10 13 46 9 59 -31
100 -22 23 -40 38 -40 34z"/>
<path d="M4251 4604 c0 -11 3 -14 6 -6 3 7 2 16 -1 19 -3 4 -6 -2 -5 -13z"/>
<path d="M4107 4547 c-31 -33 -31 -39 1 -30 12 3 25 16 28 30 9 33 3 33 -29 0z"/>
<path d="M4175 4451 c-11 -5 -23 -7 -27 -5 -13 8 -20 -17 -8 -31 7 -8 7 -15 1
-19 -5 -3 -11 -2 -13 4 -2 6 -14 4 -30 -4 -15 -8 -30 -11 -33 -8 -4 4 -5 2 -3
-5 2 -6 -4 -18 -13 -25 -20 -15 -35 -58 -21 -58 6 0 13 11 16 24 4 17 13 24
26 23 19 -1 29 -17 11 -17 -8 0 -51 -72 -51 -85 0 -3 5 -5 11 -5 5 0 15 13 20
29 7 20 22 33 51 45 50 19 58 12 58 -56 0 -26 5 -50 11 -54 25 -15 72 34 83
89 3 12 11 36 26 74 6 15 4 25 -10 38 -10 9 -16 23 -13 31 3 8 0 14 -6 14 -6
0 -11 -7 -11 -15 0 -8 -5 -15 -11 -15 -5 0 -8 -4 -5 -9 4 -5 -3 -7 -14 -4 -22
6 -26 18 -10 28 6 4 8 11 5 16 -7 11 -13 10 -40 0z"/>
<path d="M3591 4424 c0 -11 3 -14 6 -6 3 7 2 16 -1 19 -3 4 -6 -2 -5 -13z"/>
<path d="M2549 4208 c-11 -4 -24 -21 -30 -36 -7 -21 -21 -33 -49 -42 -22 -7
-48 -21 -58 -30 -27 -26 -207 -23 -226 3 -7 9 -19 17 -27 17 -8 0 -36 11 -63
25 -27 14 -57 25 -67 25 -19 0 -89 -56 -89 -71 0 -5 34 -7 74 -5 73 3 76 2
110 -30 19 -18 50 -41 68 -50 18 -9 35 -20 38 -24 18 -25 99 -70 135 -75 55
-9 94 11 132 66 31 46 38 51 99 69 23 7 54 23 69 36 33 28 32 28 81 8 35 -15
39 -15 51 2 7 10 13 23 13 30 0 15 -55 74 -69 74 -6 0 -11 3 -11 8 0 10 -154
10 -181 0z"/>
<path d="M500 4205 c0 -5 5 -17 10 -25 5 -8 10 -10 10 -5 0 6 -5 17 -10 25 -5
8 -10 11 -10 5z"/>
<path d="M520 4143 c0 -4 5 -15 10 -23 8 -13 10 -13 10 2 0 9 -4 20 -10 23 -5
3 -10 3 -10 -2z"/>
<path d="M4076 4125 c-11 -8 -16 -18 -12 -22 3 -4 16 3 29 15 24 25 12 29 -17
7z"/>
<path d="M4120 4057 c-16 -25 -23 -67 -11 -67 8 0 35 79 29 86 -2 1 -10 -7
-18 -19z"/>
<path d="M740 3870 c0 -5 7 -10 15 -10 8 0 15 5 15 10 0 6 -7 10 -15 10 -8 0
-15 -4 -15 -10z"/>
<path d="M4000 3809 c0 -5 5 -7 10 -4 6 3 10 8 10 11 0 2 -4 4 -10 4 -5 0 -10
-5 -10 -11z"/>
<path d="M4033 3799 c-18 -7 -43 -37 -43 -52 0 -15 37 4 54 26 23 31 20 38
-11 26z"/>
<path d="M766 3775 c-3 -10 -3 -22 3 -28 12 -12 20 4 11 27 -6 19 -7 19 -14 1z"/>
<path d="M3931 3698 c-1 -17 -9 -21 -71 -34 -34 -7 -34 -8 -10 -15 43 -12 88
-10 104 7 20 19 21 35 2 28 -8 -3 -16 2 -19 13 -4 15 -5 15 -6 1z"/>
<path d="M845 3660 c-3 -6 1 -7 9 -4 18 7 21 14 7 14 -6 0 -13 -4 -16 -10z"/>
<path d="M801 3613 c-1 -47 13 -63 29 -34 7 14 7 22 -1 26 -6 4 -14 17 -19 29
-7 17 -9 13 -9 -21z"/>
<path d="M4091 3594 c0 -11 3 -14 6 -6 3 7 2 16 -1 19 -3 4 -6 -2 -5 -13z"/>
<path d="M4190 3550 c0 -19 3 -21 12 -12 9 9 9 15 0 24 -9 9 -12 7 -12 -12z"/>
<path d="M2880 3552 c0 -10 -90 -31 -95 -22 -7 11 -55 -1 -55 -12 0 -6 -10 -7
-22 -3 -13 4 -37 6 -55 6 -20 -1 -35 5 -41 15 -8 14 -14 15 -44 5 -20 -6 -75
-11 -124 -10 -76 1 -160 -4 -239 -14 -32 -5 -108 -27 -142 -43 -17 -8 -45 -14
-62 -14 -17 0 -31 -5 -31 -10 0 -6 -12 -15 -27 -22 -82 -33 -91 -39 -98 -65
-3 -15 -14 -32 -23 -39 -14 -11 -15 -16 -5 -33 7 -11 10 -28 6 -37 -7 -18 12
-34 40 -34 10 0 45 18 78 41 75 50 144 81 231 103 76 19 400 41 465 31 23 -3
70 -1 103 6 78 15 176 0 271 -41 73 -32 99 -36 116 -19 9 9 9 15 0 25 -36 41
-37 43 -19 47 9 2 6 3 -7 2 -31 -4 -53 4 -45 16 11 18 -7 68 -22 62 -8 -3 -14
0 -14 6 0 16 -27 14 -33 -2 -7 -18 -76 -16 -87 3 -5 8 -7 25 -3 37 3 14 1 23
-6 23 -6 0 -11 -3 -11 -8z m-393 -68 c-3 -3 -12 -4 -19 -1 -8 3 -5 6 6 6 11 1
17 -2 13 -5z m-190 -30 c-3 -3 -12 -4 -19 -1 -8 3 -5 6 6 6 11 1 17 -2 13 -5z"/>
<path d="M1040 3535 c0 -8 5 -15 10 -15 6 0 10 7 10 15 0 8 -4 15 -10 15 -5 0
-10 -7 -10 -15z"/>
<path d="M4121 3530 c-8 -56 -7 -110 1 -102 5 5 7 36 5 68 -2 32 -5 48 -6 34z"/>
<path d="M4066 3494 c-19 -47 -16 -72 4 -33 12 21 25 79 18 79 -2 0 -11 -21
-22 -46z"/>
<path d="M4159 3503 c-1 -5 -3 -29 -4 -55 -2 -36 1 -45 11 -41 18 7 18 -5 -1
-23 -8 -9 -15 -27 -15 -42 0 -20 -3 -23 -9 -13 -8 12 -12 12 -25 2 -18 -15
-11 -35 10 -27 8 3 14 -1 14 -9 0 -8 -7 -15 -16 -15 -10 0 -14 -5 -10 -15 3
-8 9 -23 12 -32 5 -17 5 -17 -6 0 -6 9 -18 17 -26 17 -11 0 -13 -9 -8 -40 5
-31 3 -41 -10 -46 -18 -7 -21 -46 -6 -75 14 -25 -14 -27 -30 -1 -9 14 -12 14
-17 3 -11 -28 -59 -69 -78 -68 -11 1 -27 8 -35 16 -13 13 -15 12 -18 -9 -2
-14 3 -27 12 -32 17 -10 22 -38 6 -38 -5 0 -14 -15 -19 -32 l-9 -33 -2 30 c-2
28 -3 27 -16 -14 -7 -24 -16 -52 -19 -62 -4 -13 -1 -19 9 -19 9 0 16 12 19 33
2 21 4 13 5 -23 2 -53 -39 -190 -57 -190 -4 0 -13 -16 -20 -35 -7 -21 -17 -33
-23 -29 -7 5 -9 2 -6 -8 7 -18 -81 -108 -130 -132 -18 -10 -45 -16 -60 -14
-25 3 -24 5 21 27 49 24 81 61 54 61 -8 0 -20 -6 -26 -14 -13 -16 -54 -29 -91
-29 -56 0 -70 4 -70 17 0 20 34 29 75 22 66 -13 149 63 178 159 8 28 22 67 31
89 17 40 11 72 -8 40 -6 -11 -11 -21 -12 -24 -6 -29 -18 -67 -24 -75 -4 -5
-10 -22 -14 -37 -8 -34 -54 -78 -81 -78 -11 0 -32 -7 -47 -14 -15 -8 -30 -11
-33 -6 -6 10 -58 -6 -93 -28 -30 -19 -49 -55 -33 -60 16 -5 14 -32 -3 -32 -7
0 -19 -7 -26 -15 -7 -8 -17 -12 -23 -8 -6 4 -8 0 -4 -9 5 -15 -9 -38 -25 -38
-4 0 -8 9 -8 20 0 23 -29 28 -31 5 -1 -8 -2 -21 -3 -27 -2 -22 -34 -20 -41 1
-8 26 -25 27 -25 2 0 -11 -5 -23 -12 -27 -7 -5 -8 -3 -3 5 4 7 -4 5 -19 -4
-14 -10 -26 -21 -26 -25 0 -4 -11 -11 -25 -14 -14 -4 -25 -13 -25 -20 0 -23
-64 -38 -72 -17 -2 6 -22 6 -53 0 -38 -7 -52 -6 -60 3 -5 7 -14 13 -20 14 -5
0 -22 4 -37 8 -18 5 -34 3 -48 -7 -12 -8 -30 -13 -40 -10 -10 3 -27 0 -38 -6
-13 -7 -22 -7 -24 -1 -2 5 -34 11 -73 12 -61 3 -70 1 -69 -15 1 -10 -5 -17
-15 -17 -9 0 -22 -5 -29 -12 -9 -9 -12 -9 -12 0 0 7 -9 12 -20 12 -11 0 -20 4
-20 8 0 5 -11 14 -25 20 -25 12 -55 7 -55 -9 0 -5 -4 -9 -10 -9 -5 0 -7 7 -3
16 4 12 0 14 -18 10 -76 -16 -99 -17 -99 -4 0 8 -5 6 -11 -4 -5 -10 -18 -18
-27 -18 -12 0 -14 3 -4 8 21 14 -58 44 -128 48 -36 3 -85 7 -110 10 -25 3 -66
5 -92 4 -36 -1 -57 6 -88 26 -24 16 -39 33 -36 41 3 7 -1 13 -9 13 -8 0 -15 6
-15 14 0 7 -7 19 -15 26 -12 10 -15 10 -15 -2 0 -8 5 -19 12 -26 7 -7 8 -12 2
-12 -9 0 -19 9 -59 60 -23 29 -58 40 -49 15 4 -9 20 -30 37 -46 24 -24 27 -33
17 -39 -10 -6 -23 1 -42 22 l-28 32 0 -28 c0 -23 -3 -26 -14 -17 -11 10 -13 6
-10 -21 1 -18 3 -37 3 -41 1 -5 6 -5 11 -2 5 3 10 2 10 -3 0 -5 11 -21 25 -35
16 -15 22 -28 15 -32 -13 -8 -61 40 -78 79 -7 15 -10 38 -7 50 2 11 2 16 0 10
-3 -6 -16 -9 -29 -7 -31 6 -61 62 -76 146 -13 69 -26 90 -41 66 -8 -12 -11
-12 -19 1 -10 13 -11 13 -9 0 3 -31 -1 -50 -12 -50 -6 0 -9 16 -8 40 2 29 -2
47 -16 62 -11 12 -28 36 -38 53 l-18 30 6 -30 c18 -86 18 -103 -4 -110 -11 -3
-25 -4 -29 -1 -12 7 -82 -15 -77 -25 3 -4 -4 -5 -14 -2 -35 9 -31 56 11 129
44 75 52 134 18 131 -11 -1 -20 -7 -20 -14 0 -7 -15 -29 -33 -49 -95 -108 -97
-109 -98 -66 0 15 -3 22 -5 15 -3 -7 -12 -9 -20 -6 -23 9 -16 -16 13 -43 37
-34 20 -42 -24 -11 -20 15 -38 25 -40 23 -2 -2 26 -48 62 -102 51 -76 74 -102
100 -113 19 -7 35 -18 35 -22 0 -5 9 -9 20 -9 11 0 20 5 20 10 0 6 11 10 25
10 14 0 42 7 62 15 20 8 38 13 41 11 11 -12 -49 -54 -86 -61 -46 -8 -51 -16
-24 -42 11 -10 22 -26 25 -35 3 -9 21 -25 39 -34 37 -19 44 -27 93 -101 26
-40 38 -50 54 -46 11 3 35 -4 54 -16 l34 -21 7 30 c3 19 14 34 28 39 29 11 37
4 42 -36 3 -30 26 -63 43 -63 4 0 20 -13 35 -29 34 -36 100 -69 106 -52 2 6 8
11 12 11 13 0 65 -51 62 -61 -1 -5 5 -9 14 -9 13 0 14 -3 5 -14 -10 -12 -7
-18 13 -31 30 -20 33 -30 10 -39 -8 -3 -13 -2 -10 3 7 10 -32 47 -40 38 -18
-17 38 -83 131 -155 l30 -22 -33 6 c-55 10 -88 32 -167 110 -41 42 -75 69 -75
60 0 -28 134 -152 200 -186 36 -18 117 -17 89 1 -10 6 -11 9 -1 9 19 0 14 18
-6 24 -22 7 -82 59 -82 71 0 4 6 3 13 -2 6 -6 25 -13 41 -17 44 -11 136 -93
136 -122 0 -14 4 -32 9 -42 5 -9 12 -25 15 -36 5 -14 12 -17 31 -12 23 6 24 5
13 -19 -12 -27 -19 -30 -34 -15 -5 5 -15 5 -23 1 -9 -6 -2 -11 23 -15 20 -4
41 -4 46 -1 6 3 16 3 23 -2 8 -5 -2 -12 -28 -19 -22 -7 -32 -13 -22 -13 9 -1
17 -6 17 -12 0 -7 -10 -9 -25 -7 -14 3 -25 2 -25 -3 0 -14 41 -31 76 -31 37 0
67 -24 41 -33 -28 -11 -15 -116 16 -137 7 -4 7 -11 -2 -21 -10 -12 -7 -17 19
-28 16 -8 30 -19 30 -24 0 -6 13 -27 30 -47 22 -26 35 -35 50 -31 26 7 26 -8
0 -30 -11 -9 -20 -12 -20 -7 0 6 -6 10 -14 10 -9 0 -12 -7 -9 -20 3 -11 1 -20
-5 -20 -5 0 -12 -11 -14 -25 -5 -21 -1 -25 19 -25 20 0 24 -4 19 -17 -6 -16
-6 -16 11 0 13 11 34 15 68 14 l50 -2 -1 43 c-1 28 2 42 10 39 11 -4 12 -7 15
-44 1 -14 3 -15 10 -4 5 7 7 21 4 30 -3 10 8 22 31 35 33 18 37 18 60 2 14 -9
43 -16 65 -16 32 0 48 -8 89 -45 27 -25 53 -45 58 -45 4 0 20 15 35 32 26 32
27 33 47 15 16 -15 26 -17 55 -9 20 6 40 6 50 1 25 -15 32 11 8 28 -15 10 -19
18 -12 27 6 8 7 27 0 54 -9 44 2 72 30 72 6 0 11 4 11 8 0 13 64 82 77 82 25
0 58 26 55 43 -2 9 1 17 7 17 6 0 11 9 11 20 0 11 5 20 10 20 6 0 10 -9 10
-20 0 -11 -5 -20 -11 -20 -8 0 -10 -15 -7 -45 4 -34 2 -45 -8 -45 -8 0 -14 -4
-14 -9 0 -10 96 -24 109 -16 5 3 11 -1 14 -7 3 -9 10 -6 21 8 8 12 29 24 46
27 23 5 30 12 30 29 0 13 8 28 19 35 10 6 21 26 25 43 5 29 9 31 32 26 34 -9
64 1 64 22 0 17 -53 56 -77 57 -7 0 -17 5 -24 12 -8 8 -6 14 10 23 12 6 25 9
30 6 5 -3 11 12 15 34 7 44 8 45 36 28 15 -9 23 -10 28 -2 4 6 23 16 42 23 28
9 35 9 42 -4 10 -17 38 -21 38 -5 0 6 -4 19 -10 30 -5 11 -14 29 -20 40 -5 11
-10 24 -10 29 0 14 51 23 65 11 11 -9 17 -7 27 9 17 28 28 26 28 -4 0 -20 5
-25 24 -25 13 0 29 -7 36 -15 22 -27 43 -19 37 15 -4 16 -2 32 3 35 6 3 10 0
11 -7 0 -7 5 -4 10 7 7 16 8 13 4 -11 -6 -33 9 -84 24 -84 10 0 32 56 25 63
-3 3 7 7 21 11 16 4 25 13 25 26 0 11 -4 20 -10 20 -5 0 -10 7 -10 15 0 9 10
14 28 14 42 0 62 4 62 11 0 18 -53 64 -135 118 -49 32 -105 75 -123 96 -38 43
-37 62 4 154 13 29 31 83 41 120 19 78 55 160 85 192 20 21 22 34 17 107 -3
41 14 61 77 89 28 12 66 39 85 58 38 41 88 169 89 226 0 19 9 60 21 90 19 50
20 60 8 108 -9 39 -10 72 -3 123 9 66 9 69 -10 67 -17 -3 -22 5 -28 41 -4 24
-12 49 -18 56 -8 10 -7 14 2 18 7 3 1 6 -14 6 -16 1 -29 -2 -29 -6z m-2726
-900 c-7 -2 -19 -2 -25 0 -7 3 -2 5 12 5 14 0 19 -2 13 -5z m-102 -36 c-12
-15 -75 -35 -126 -39 -25 -3 -31 1 -33 20 -3 19 0 23 15 18 68 -20 92 -18 115
7 24 27 52 20 29 -6z m379 -230 c0 -5 -4 -5 -10 -2 -5 3 -10 14 -10 23 0 15 2
15 10 2 5 -8 10 -19 10 -23z m-290 2 c0 -11 -4 -17 -10 -14 -5 3 -10 13 -10
21 0 8 5 14 10 14 6 0 10 -9 10 -21z m329 -40 c-24 -21 -33 -24 -24 -9 3 6 -1
13 -10 16 -24 10 0 22 31 16 l24 -4 -21 -19z m74 -19 c17 0 78 -56 70 -64 -16
-16 -68 -4 -104 25 -42 33 -51 54 -19 46 11 -3 23 0 27 6 5 8 8 8 11 -1 2 -7
9 -12 15 -12z m292 11 c-15 -13 -125 -24 -125 -12 0 13 24 18 85 20 29 1 45
-3 40 -8z m-625 -31 c0 -22 -28 -27 -61 -10 -31 17 -22 30 21 30 33 0 40 -3
40 -20z m490 0 c0 -13 -20 -13 -40 0 -12 8 -9 10 13 10 15 0 27 -4 27 -10z
m-380 -4 c0 -3 -4 -8 -10 -11 -5 -3 -10 -1 -10 4 0 6 5 11 10 11 6 0 10 -2 10
-4z m610 -6 c11 -7 5 -10 -23 -10 -23 0 -36 4 -32 10 8 13 35 13 55 0z m170 0
c0 -5 -4 -10 -10 -10 -5 0 -10 5 -10 10 0 6 5 10 10 10 6 0 10 -4 10 -10z
m-725 -18 c-3 -3 -11 0 -18 7 -9 10 -8 11 6 5 10 -3 15 -9 12 -12z m12 -34
c-3 -8 -6 -5 -6 6 -1 11 2 17 5 13 3 -3 4 -12 1 -19z m163 -43 c0 -8 -4 -15
-10 -15 -5 0 -7 7 -4 15 4 8 8 15 10 15 2 0 4 -7 4 -15z m367 -92 c-9 -9 -20
-13 -24 -9 -4 4 -1 11 7 16 25 16 35 11 17 -7z m-67 -23 c0 -5 -9 -10 -19 -10
-11 0 -23 5 -26 10 -4 6 5 10 19 10 14 0 26 -4 26 -10z m-89 -91 c19 -16 20
-18 4 -10 -34 17 -51 31 -39 31 7 0 22 -9 35 -21z m1604 -130 c9 -28 -8 -45
-25 -25 -13 17 -7 46 9 46 5 0 13 -9 16 -21z m-117 -334 c-3 -3 -9 2 -12 12
-6 14 -5 15 5 6 7 -7 10 -15 7 -18z m-248 -165 c0 -5 -2 -10 -4 -10 -3 0 -8 5
-11 10 -3 6 -1 10 4 10 6 0 11 -4 11 -10z m-765 -160 c7 -11 -12 -50 -24 -50
-11 0 -22 40 -15 52 7 11 31 10 39 -2z m-53 -42 c-6 -6 -15 -8 -19 -4 -4 4 -1
11 7 16 19 12 27 3 12 -12z m-42 -58 c0 -5 -4 -10 -10 -10 -5 0 -10 5 -10 10
0 6 5 10 10 10 6 0 10 -4 10 -10z"/>
<path d="M3699 3472 c14 -15 28 -24 29 -19 2 4 10 7 17 7 8 0 13 8 12 18 -1
13 -11 17 -43 19 l-42 2 27 -27z"/>
<path d="M4010 3413 c0 -10 -5 -25 -11 -33 -9 -13 -10 -12 -5 3 6 20 -7 23
-23 3 -9 -11 -9 -15 1 -20 10 -5 10 -7 1 -12 -19 -8 -16 -44 3 -44 12 0 10
-10 -13 -52 -15 -29 -34 -53 -41 -53 -7 0 -22 -15 -33 -32 -38 -60 -3 -34 86
63 54 59 81 94 68 90 -28 -9 -33 1 -23 52 4 23 3 45 -1 48 -5 3 -9 -3 -9 -13z"/>
<path d="M3826 3401 c-9 -14 4 -41 20 -41 8 0 14 6 14 14 0 18 -26 40 -34 27z"/>
<path d="M4110 3386 c0 -14 5 -28 10 -31 6 -4 10 7 10 24 0 17 -4 31 -10 31
-5 0 -10 -11 -10 -24z"/>
<path d="M810 3392 c0 -15 11 -21 27 -15 12 5 12 7 1 14 -17 11 -28 11 -28 1z"/>
<path d="M3566 3281 c-4 -7 -5 -15 -2 -18 9 -9 19 4 14 18 -4 11 -6 11 -12 0z"/>
<path d="M3762 3210 c0 -14 2 -19 5 -12 2 6 2 18 0 25 -3 6 -5 1 -5 -13z"/>
<path d="M830 3175 c0 -3 9 -15 20 -27 15 -16 20 -18 20 -7 0 8 -5 20 -12 27
-12 12 -28 16 -28 7z"/>
<path d="M1230 3166 c19 -17 65 -33 56 -18 -3 5 -21 15 -38 21 -29 10 -31 10
-18 -3z"/>
<path d="M3840 3091 c0 -10 -8 -36 -17 -57 -9 -22 -17 -42 -17 -46 -1 -3 -4
-10 -8 -14 -4 -4 -3 -13 3 -20 7 -8 7 -14 -1 -19 -13 -8 -13 -28 1 -23 6 2 10
7 10 11 0 4 6 24 13 45 16 43 31 142 22 142 -3 0 -6 -8 -6 -19z"/>
<path d="M1291 3077 c-12 -18 -10 -22 9 -37 12 -9 43 -17 70 -19 41 -2 48 1
53 19 4 16 -1 24 -19 32 -13 6 -24 16 -24 22 0 6 -5 3 -11 -7 -7 -12 -15 -15
-22 -9 -26 20 -44 19 -56 -1z"/>
<path d="M1000 2887 c0 -5 7 -30 16 -58 17 -51 44 -67 44 -26 0 21 -59 103
-60 84z"/>
<path d="M1120 2835 c0 -36 1 -38 16 -23 15 15 15 18 0 39 -16 23 -16 23 -16
-16z"/>
<path d="M3775 2852 c-12 -12 -4 -30 13 -27 9 2 20 4 24 4 4 1 5 7 2 14 -5 13
-29 19 -39 9z"/>
<path d="M900 2831 c0 -6 4 -13 10 -16 6 -3 7 1 4 9 -7 18 -14 21 -14 7z"/>
<path d="M3858 2791 c-4 -13 -11 -20 -17 -16 -7 4 -11 -3 -11 -17 l0 -22 21
21 c12 11 19 29 17 39 -3 16 -5 16 -10 -5z"/>
<path d="M1092 2779 c-14 -22 -7 -25 14 -5 8 8 11 17 6 20 -4 2 -13 -4 -20
-15z"/>
<path d="M1380 2790 c0 -9 31 -70 76 -151 17 -30 56 -69 64 -64 4 3 13 -2 20
-10 7 -8 18 -15 26 -15 7 0 20 -10 28 -22 9 -12 16 -18 16 -13 0 5 -12 22 -27
38 -19 20 -24 31 -15 34 6 3 10 9 7 13 -3 5 -12 7 -19 4 -7 -3 -19 2 -26 11
-7 8 -18 15 -24 16 -20 1 -97 109 -92 127 3 9 2 22 -2 27 -10 14 -32 17 -32 5z"/>
<path d="M1250 2770 c0 -11 2 -20 4 -20 2 0 6 9 9 20 3 11 1 20 -4 20 -5 0 -9
-9 -9 -20z"/>
<path d="M950 2751 c0 -5 7 -15 17 -22 15 -13 15 -12 4 9 -12 23 -21 28 -21
13z"/>
<path d="M3405 2699 c-16 -11 -40 -19 -52 -19 -30 0 -29 -18 1 -31 21 -10 30
-7 65 21 23 19 41 34 41 36 0 11 -31 7 -55 -7z"/>
<path d="M3602 2708 c-13 -13 -16 -38 -4 -38 13 1 46 30 33 30 -7 0 -9 5 -6
10 9 14 -8 13 -23 -2z"/>
<path d="M890 2601 l-45 -6 44 -23 c53 -26 70 -27 77 -7 6 15 -12 46 -25 43
-3 0 -26 -4 -51 -7z"/>
<path d="M1527 2478 c-7 -21 4 -47 18 -42 7 3 11 14 8 25 -7 24 -20 33 -26 17z"/>
<path d="M2620 2370 c-13 -8 -12 -10 3 -10 9 0 17 5 17 10 0 12 -1 12 -20 0z"/>
<path d="M2645 2351 c-3 -5 -1 -12 5 -16 5 -3 10 1 10 9 0 18 -6 21 -15 7z"/>
<path d="M3060 2310 c0 -5 9 -10 20 -10 11 0 20 5 20 10 0 6 -9 10 -20 10 -11
0 -20 -4 -20 -10z"/>
<path d="M1626 2005 c-9 -24 -7 -32 3 -16 7 11 12 7 25 -15 20 -37 73 -95 109
-118 45 -30 31 -1 -24 48 -29 26 -59 61 -68 78 -19 37 -36 46 -45 23z"/>
<path d="M1860 1690 c0 -5 7 -10 15 -10 8 0 15 5 15 10 0 6 -7 10 -15 10 -8 0
-15 -4 -15 -10z"/>
<path d="M4146 1604 c-3 -9 -4 -20 0 -25 3 -5 -6 -24 -19 -41 -28 -38 -42 -84
-27 -93 13 -8 49 76 57 132 6 43 0 57 -11 27z"/>
<path d="M1870 1487 c14 -7 34 -16 45 -20 17 -6 17 -4 -4 13 -13 11 -33 20
-45 20 -20 0 -19 -1 4 -13z"/>
<path d="M3918 888 c-8 -7 -28 -33 -43 -56 -18 -31 -32 -43 -44 -39 -9 2 -22
-1 -28 -7 -6 -6 -24 -21 -40 -33 -16 -12 -42 -34 -57 -48 -15 -14 -30 -25 -34
-25 -4 0 -30 -23 -56 -50 -27 -28 -55 -49 -62 -46 -7 3 -20 -4 -30 -15 -20
-23 -50 -25 -61 -4 -16 28 -82 -1 -139 -60 -39 -40 -61 -54 -91 -59 -26 -5
-42 -14 -48 -29 -6 -12 -20 -27 -33 -33 -13 -6 -34 -21 -48 -33 -13 -11 -29
-21 -34 -21 -6 0 -19 -9 -30 -20 -13 -13 -38 -22 -68 -25 -26 -2 -71 -9 -100
-15 -39 -9 -57 -9 -65 -1 -17 17 -38 13 -64 -11 -18 -17 -38 -22 -88 -25 -36
-1 -65 1 -65 6 0 4 -25 3 -55 -2 -30 -6 -55 -14 -55 -18 0 -4 -9 -5 -20 -2
-11 3 -20 9 -20 14 0 5 -10 9 -23 9 -13 0 -27 3 -30 7 -10 10 -118 10 -152 0
-52 -15 -258 -9 -301 9 -22 9 -50 18 -64 19 -14 2 -45 7 -69 11 -30 5 -45 3
-51 -6 -5 -9 -29 0 -87 34 -44 25 -88 46 -97 46 -9 0 -14 5 -11 10 3 6 -7 18
-24 28 -17 9 -31 20 -31 25 0 4 -5 7 -10 7 -6 0 -22 11 -36 25 -14 14 -33 25
-43 25 -10 0 -35 11 -55 25 -20 14 -41 25 -47 25 -5 0 -27 9 -49 20 -22 11
-50 20 -64 20 -17 0 -42 16 -73 47 -54 53 -113 97 -113 84 0 -5 15 -20 32 -34
18 -14 57 -48 86 -76 29 -28 57 -51 63 -51 5 0 38 -26 73 -57 101 -92 357
-255 421 -269 32 -7 102 -41 110 -54 3 -5 19 -11 35 -15 51 -11 33 -21 -37
-21 -38 0 -165 -4 -283 -7 -118 -4 -253 -7 -300 -7 -84 0 -118 -9 -107 -28 6
-9 97 -27 127 -25 8 1 18 -4 22 -10 6 -9 11 -8 18 3 5 8 10 10 10 4 0 -12 162
-21 543 -30 114 -3 219 -9 233 -14 14 -6 149 -10 307 -9 155 1 271 4 257 8
l-25 8 30 6 c17 3 37 6 45 6 47 0 904 13 952 15 62 2 93 16 37 17 -29 0 -31 2
-13 9 12 4 78 10 148 12 96 2 126 0 126 -9 0 -7 9 -13 21 -13 15 0 19 5 15 15
-5 15 0 18 78 30 69 11 21 21 -121 23 -75 2 -140 5 -143 7 -4 3 -202 5 -439 6
-238 0 -431 3 -428 5 2 3 74 29 158 58 192 68 304 117 349 154 19 16 46 35 60
42 14 7 62 47 107 89 45 42 108 99 140 126 63 55 139 140 192 215 34 51 40 82
9 58z m-2598 -404 c0 -9 9 -18 20 -21 11 -3 20 -9 20 -14 0 -13 -8 -11 -41 8
-36 21 -45 43 -19 43 12 0 20 -7 20 -16z m150 -108 c0 -2 -9 -2 -20 1 -11 3
-20 9 -20 15 0 5 9 4 20 -2 11 -6 20 -12 20 -14z"/>
<path d="M3822 850 c-17 -28 -15 -32 8 -13 20 18 26 33 12 33 -4 0 -13 -9 -20
-20z"/>
<path d="M3550 649 c0 -5 5 -7 10 -4 6 3 10 8 10 11 0 2 -4 4 -10 4 -5 0 -10
-5 -10 -11z"/>
<path d="M4088 113 c7 -3 16 -2 19 1 4 3 -2 6 -13 5 -11 0 -14 -3 -6 -6z"/>
<path d="M4799 66 c-2 -3 -66 -7 -142 -10 -76 -3 -141 -7 -145 -10 -4 -2 -90
-7 -192 -10 -102 -4 -201 -9 -220 -11 -19 -2 -159 -7 -310 -11 -151 -3 -277
-8 -279 -10 -2 -2 320 -4 717 -4 774 0 752 -1 699 48 -18 17 -36 22 -73 22
-28 0 -53 -2 -55 -4z"/>
<path d="M12 22 c-7 -2 -12 -8 -12 -13 0 -5 35 -9 77 -9 45 0 73 4 67 9 -10 9
-112 20 -132 13z"/>
<path d="M160 10 c0 -6 29 -10 68 -10 47 0 63 3 52 10 -20 13 -120 13 -120 0z"/>
</g>
</svg>
